<svg width="33" height="33" viewBox="0 0 33 33" fill="none" xmlns="http://www.w3.org/2000/svg">
<path d="M22.6875 15.4688H17.5312V10.3125C17.5312 10.0332 17.4292 9.79151 17.2251 9.5874C17.021 9.3833 16.7793 9.28125 16.5 9.28125C16.2207 9.28125 15.979 9.3833 15.7749 9.5874C15.5708 9.79151 15.4688 10.0332 15.4688 10.3125V15.4688H10.3125C10.0332 15.4688 9.79151 15.5708 9.5874 15.7749C9.3833 15.979 9.28125 16.2207 9.28125 16.5C9.28125 16.7793 9.3833 17.021 9.5874 17.2251C9.79151 17.4292 10.0332 17.5312 10.3125 17.5312H15.4688V22.6875C15.4688 22.9668 15.5708 23.2085 15.7749 23.4126C15.979 23.6167 16.2207 23.7188 16.5 23.7188C16.7793 23.7188 17.021 23.6167 17.2251 23.4126C17.4292 23.2085 17.5312 22.9668 17.5312 22.6875V17.5312H22.6875C22.9668 17.5312 23.2085 17.4292 23.4126 17.2251C23.6167 17.021 23.7188 16.7793 23.7188 16.5C23.7188 16.2207 23.6167 15.979 23.4126 15.7749C23.2085 15.5708 22.9668 15.4688 22.6875 15.4688ZM28.875 0H4.125C2.98632 0 2.01416 0.402828 1.2085 1.2085C0.402828 2.01416 0 2.98632 0 4.125V28.875C0 30.0137 0.402828 30.9858 1.2085 31.7915C2.01416 32.5972 2.98632 33 4.125 33H28.875C30.0137 33 30.9858 32.5972 31.7915 31.7915C32.5972 30.9858 33 30.0137 33 28.875V4.125C33 2.98632 32.5972 2.01416 31.7915 1.2085C30.9858 0.402828 30.0137 0 28.875 0ZM30.9375 28.875C30.9375 29.4336 30.7334 29.917 30.3252 30.3252C29.917 30.7334 29.4336 30.9375 28.875 30.9375H4.125C3.5664 30.9375 3.08301 30.7334 2.67481 30.3252C2.2666 29.917 2.0625 29.4336 2.0625 28.875V4.125C2.0625 3.5664 2.2666 3.08301 2.67481 2.67481C3.08301 2.2666 3.5664 2.0625 4.125 2.0625H28.875C29.4336 2.0625 29.917 2.2666 30.3252 2.67481C30.7334 3.08301 30.9375 3.5664 30.9375 4.125V28.875Z" fill="black"/>
</svg>
