<svg width="47" height="57" viewBox="0 0 47 57" fill="none" xmlns="http://www.w3.org/2000/svg">
<path d="M36.1667 5.16667H43.9167C44.64 5.16667 45.2514 5.41639 45.7508 5.91583C46.2503 6.41528 46.5 7.02666 46.5 7.75V54.25C46.5 54.9733 46.2503 55.5847 45.7508 56.0842C45.2514 56.5836 44.64 56.8333 43.9167 56.8333H2.58333C1.86 56.8333 1.24861 56.5836 0.749167 56.0842C0.24972 55.5847 0 54.9733 0 54.25V7.75C0 7.02666 0.24972 6.41528 0.749167 5.91583C1.24861 5.41639 1.86 5.16667 2.58333 5.16667H10.3333V0H15.5V5.16667H31V0H36.1667V5.16667ZM36.1667 10.3333V15.5H31V10.3333H15.5V15.5H10.3333V10.3333H5.16667V51.6667H41.3333V10.3333H36.1667ZM10.3333 20.6667H36.1667V25.8333H10.3333V20.6667ZM10.3333 31H36.1667V36.1667H10.3333V31Z" fill="black"/>
</svg>
